<?xml version="1.0" encoding="UTF-8" standalone="no"?>
<svg xmlns="http://www.w3.org/2000/svg" width="512" height="128" viewBox="0 0 512 128">
  <defs>
    <linearGradient id="g" x1="0%" y1="0%" x2="100%" y2="0%">
      <stop stop-color="#ff6ab5" offset="0%"/>
      <stop stop-color="#ff2f8a" offset="100%"/>
    </linearGradient>
  </defs>
  <rect width="100%" height="100%" fill="none"/>
  <g>
    <circle cx="64" cy="64" r="40" fill="url(#g)"/>
    <circle cx="104" cy="64" r="24" fill="#ff9ad0" opacity="0.6"/>
    <circle cx="40" cy="64" r="16" fill="#ff9ad0" opacity="0.4"/>
  </g>
  <g transform="translate(150,28)" fill="url(#g)">
    <path d="M0,72 L0,0 L16,0 L16,44 L44,16 L64,16 L38,42 L66,72 L46,72 L28,50 L16,62 L16,72 Z"/>
    <path d="M86,72 L86,16 L102,16 L102,72 Z"/>
    <path d="M122,72 L122,16 L138,16 L138,44 C138,54 146,60 156,60 C166,60 174,54 174,44 L174,16 L190,16 L190,47 C190,64 177,76 160,76 C147,76 136,70 131,59 L131,72 Z"/>
    <path d="M210,72 L210,16 L226,16 L226,31 C231,21 241,16 252,16 C270,16 284,28 284,48 C284,68 270,80 252,80 C241,80 231,75 226,65 L226,72 Z M266,48 C266,38 259,32 250,32 C241,32 234,38 234,48 C234,58 241,64 250,64 C259,64 266,58 266,48 Z"/>
    <path d="M306,72 L306,0 L322,0 L322,46 L348,16 L368,16 L340,48 L370,72 L350,72 L326,51 L322,56 L322,72 Z"/>
  </g>
</svg>
